IKResults
version=1
nRows=11
nColumns=63
inDegrees=yes

Units are S.I. units (second, meters, Newtons, ...)
If the header above contains a line with 'inDegrees', this indicates whether rotational values are in degrees (yes) or radians (no).

endheader
time	pelvis_tilt	pelvis_list	pelvis_rotation	pelvis_tx	pelvis_ty	pelvis_tz	hip_flexion_r	hip_adduction_r	hip_rotation_r	knee_angle_r	knee_angle_r_beta	ankle_angle_r	subtalar_angle_r	mtp_angle_r	hip_flexion_l	hip_adduction_l	hip_rotation_l	knee_angle_l	knee_angle_l_beta	ankle_angle_l	subtalar_angle_l	mtp_angle_l	L5_S1_Flex_Ext	L5_S1_Lat_Bending	L5_S1_axial_rotation	L4_L5_Flex_Ext	L4_L5_Lat_Bending	L4_L5_axial_rotation	L3_L4_Flex_Ext	L3_L4_Lat_Bending	L3_L4_axial_rotation	L2_L3_Flex_Ext	L2_L3_Lat_Bending	L2_L3_axial_rotation	L1_L2_Flex_Ext	L1_L2_Lat_Bending	L1_L2_axial_rotation	L1_T12_Flex_Ext	L1_T12_Lat_Bending	L1_T12_axial_rotation	Abs_r3	Abs_r2	Abs_r1	Abs_t1	Abs_t2	neck_flexion	neck_bending	neck_rotation	arm_flex_r	arm_add_r	arm_rot_r	elbow_flex_r	pro_sup_r	wrist_flex_r	wrist_dev_r	arm_flex_l	arm_add_l	arm_rot_l	elbow_flex_l	pro_sup_l	wrist_flex_l	wrist_dev_l
      0.03333333	     -2.26937435	      1.46091318	    -61.04574615	     -0.56758835	      0.94104228	     -0.69934790	     -0.38456174	      0.34412712	    -19.16306398	      8.08205078	      0.14105840	     18.91038330	    -18.49467580	      0.00000000	      2.19139964	     -7.27758708	      9.73321921	      9.42719598	      0.16453561	     14.05518921	    -17.46775770	      0.00000000	     -0.62302303	      0.10724897	     -1.70498334	     -1.15701607	      0.14264113	     -1.81154479	     -1.02356453	      0.26076514	     -1.81154479	     -0.71205302	      0.26076514	     -1.49186042	     -0.57853918	      0.21870210	     -1.38529896	     -0.35599536	      0.16612865	     -1.27873750	     -4.45019119	      1.21322178	     -9.48260582	      0.00000000	      0.00000000	     10.00877001	      3.61205678	      1.77144867	    -14.65825080	    -20.02512695	      7.16536751	     74.26869424	     89.99559364	      0.00000000	      0.00000000	     -2.88883952	    -15.18173683	     16.04035349	     31.26879724	     89.99559364	      0.00000000	      0.00000000
      0.06666667	     -2.28248318	      1.47464272	    -61.04259821	     -0.56750777	      0.94098797	     -0.69926940	     -0.39421350	      0.33012145	    -19.16208514	      8.08402747	      0.14109290	     18.90919842	    -18.47020058	      0.00000000	      2.20960695	     -7.28725232	      9.73096133	      9.42551694	      0.16450630	     14.05741329	    -17.45475602	      0.00000000	     -0.62492043	      0.10678652	     -1.70369333	     -1.16053973	      0.14202607	     -1.81017416	     -1.02668178	      0.25964075	     -1.81017416	     -0.71422156	      0.25964075	     -1.49073166	     -0.58030111	      0.21775908	     -1.38425083	     -0.35707953	      0.16541232	     -1.27777000	     -4.46374414	      1.20799049	     -9.47543118	      0.00000000	      0.00000000	     10.01009382	      3.60977821	      1.77854183	    -14.65829463	    -20.02510562	      7.16537208	     74.26872163	     89.99559364	      0.00000000	      0.00000000	     -2.89056565	    -15.19145768	     16.03879416	     31.26869717	     89.99559364	      0.00000000	      0.00000000
      0.10000000	     -2.12192573	      1.56802256	    -61.15125320	     -0.56793487	      0.94082824	     -0.69972052	     -0.38759618	      0.11094134	    -18.96073274	      8.03316582	      0.14020519	     18.90616215	    -18.48895562	      0.00000000	      2.33753405	     -7.08504416	      9.55863516	      9.61927933	      0.16788810	     14.07899880	    -17.47876692	      0.00000000	     -0.65088976	      0.09020876	     -1.70201051	     -1.20876737	      0.11997766	     -1.80838617	     -1.06934678	      0.21933359	     -1.80838617	     -0.74390190	      0.21933359	     -1.48925920	     -0.60441623	      0.18395371	     -1.38288354	     -0.37191841	      0.13973338	     -1.27650789	     -4.64924044	      1.02045959	     -9.46607188	      0.00000000	      0.00000000	     10.47998931	      3.58379268	      2.99699652	    -14.66210648	    -20.02248268	      7.16582913	     74.27048384	     89.99559364	      0.00000000	      0.00000000	     -2.87689430	    -15.39189797	     16.05413274	     31.48469775	     89.99559364	      0.00000000	      0.00000000
      0.13333333	     -1.93162998	      1.58405621	    -61.38563557	     -0.56839620	      0.94083946	     -0.70009019	     -0.42155293	     -0.14363473	    -18.63979472	      8.11041750	      0.14155349	     18.87346816	    -18.48985564	      0.00000000	      2.34484682	     -6.90547456	      9.27247406	      9.80526749	      0.17113420	     14.10655344	    -17.44691890	      0.00000000	     -0.69477988	      0.07307370	     -1.68134684	     -1.29027571	      0.09718802	     -1.78643102	     -1.14145386	      0.17767140	     -1.78643102	     -0.79406392	      0.17767140	     -1.47117849	     -0.64517260	      0.14901189	     -1.36609431	     -0.39699722	      0.11319117	     -1.26101013	     -4.96274319	      0.82662434	     -9.35114674	      0.00000000	      0.00000000	     10.90388012	      3.75125251	      4.29091866	    -14.66610895	    -20.01892730	      7.16636527	     74.27248386	     89.99559364	      0.00000000	      0.00000000	     -2.85204196	    -15.59949173	     16.12774363	     31.74614978	     89.99559364	      0.00000000	      0.00000000
      0.16666667	     -1.44157097	      1.12059068	    -67.67608531	     -0.57842347	      0.94224511	     -0.70538411	      1.27660479	     -0.84807280	    -12.56351162	     10.39833909	      0.18148525	     18.75601275	    -18.73494472	      0.00000000	      0.94287046	     -6.77263519	      2.73489455	      9.84488150	      0.17182560	     14.11753182	    -17.27835152	      0.00000000	     -1.00716632	      0.03437864	     -0.53575640	     -1.87040856	      0.04572359	     -0.56924117	     -1.65467354	      0.08358823	     -0.56924117	     -1.15109038	      0.08358823	     -0.46878685	     -0.93525464	      0.07010493	     -0.43530207	     -0.57549483	      0.05325252	     -0.40181730	     -7.19408828	      0.38889807	     -2.97971636	      0.00000000	      0.00000000	     13.28665074	      3.73027415	      5.51228313	    -14.75089001	    -19.87593299	      7.18345254	     74.35417569	     89.99559364	      0.00000000	      0.00000000	     -0.76760455	    -15.79084071	     17.84012322	     31.54795489	     89.99559364	      0.00000000	      0.00000000
      0.20000000	     -1.30698396	      1.23992625	    -67.81302316	     -0.57820868	      0.94214874	     -0.70540756	      1.27861931	     -1.11560252	    -12.61443663	     10.32163696	      0.18014655	     18.52464949	    -18.70872544	      0.00000000	      1.15272295	     -6.58891455	      2.43626915	     10.17859705	      0.17765003	     14.25424315	    -17.23682395	      0.00000000	     -1.02362567	      0.01780478	     -0.53784610	     -1.90097523	      0.02368036	     -0.57146148	     -1.68171462	      0.04329055	     -0.57146148	     -1.16990178	      0.04329055	     -0.47061533	     -0.95053880	      0.03630751	     -0.43699995	     -0.58489971	      0.02757961	     -0.40338457	     -7.31165581	      0.20141125	     -2.99133864	      0.00000000	      0.00000000	     13.63491778	      3.79442996	      6.39438522	    -14.75248526	    -19.87408417	      7.18367379	     74.35567649	     89.99559364	      0.00000000	      0.00000000	     -0.83855587	    -15.97837877	     18.05454744	     31.80236260	     89.99559364	      0.00000000	      0.00000000
      0.23333333	     -1.12912040	      1.30507091	    -69.43419762	     -0.58026066	      0.94229395	     -0.70667367	      1.82885239	     -1.45084426	    -11.37034854	     10.82322088	      0.18890084	     18.19743781	    -18.74733622	      0.00000000	      1.10505733	     -6.43157754	      0.38613701	     10.50435025	      0.18333550	     14.50398367	    -16.76795901	      0.00000000	     -1.08674998	     -0.00450874	     -0.25402475	     -2.01820339	     -0.00599662	     -0.26990129	     -1.78542155	     -0.01096255	     -0.26990129	     -1.24204655	     -0.01096255	     -0.22227165	     -1.00915603	     -0.00919422	     -0.20639511	     -0.62096894	     -0.00698404	     -0.19051856	     -7.76254645	     -0.05100377	     -1.41280944	      0.00000000	      0.00000000	     14.32855191	      3.86569716	      7.28977285	    -14.78372964	    -19.87211546	      7.18480153	     74.37225488	     89.99559364	      0.00000000	      0.00000000	     -0.18718579	    -16.45416040	     20.47307947	     31.93805149	     89.99559364	      0.00000000	      0.00000000
      0.26666667	     -1.03939564	      1.41588064	    -69.68189785	     -0.57989205	      0.94227929	     -0.70663330	      1.87217110	     -1.67136354	    -11.67186401	     10.72062043	      0.18711012	     17.75519865	    -18.77004161	      0.00000000	      1.27349419	     -6.28341609	      0.04804317	     10.79587249	      0.18842352	     14.58480566	    -16.81323694	      0.00000000	     -1.09566722	     -0.01478287	     -0.24029923	     -2.03476359	     -0.01966122	     -0.25531794	     -1.80007167	     -0.03594307	     -0.25531794	     -1.25223806	     -0.03594307	     -0.21026183	     -1.01743658	     -0.03014523	     -0.19524313	     -0.62606425	     -0.02289867	     -0.18022443	     -7.82624137	     -0.16722678	     -1.33647225	      0.00000000	      0.00000000	     14.51755704	      3.84671872	      7.70561510	    -14.78615772	    -19.87346252	      7.18475937	     74.37301207	     89.99559364	      0.00000000	      0.00000000	     -0.28089419	    -16.52403885	     20.49088489	     32.15894600	     89.99559364	      0.00000000	      0.00000000
      0.30000000	     -1.01098798	      1.52297026	    -69.96789486	     -0.57963782	      0.94223156	     -0.70656397	      1.97525283	     -1.80872111	    -12.04950043	     10.66666764	      0.18616847	     17.35699476	    -18.77200105	      0.00000000	      1.42277813	     -6.20679285	     -0.36886197	     11.03374521	      0.19257518	     14.70860179	    -16.77342859	      0.00000000	     -1.10070149	     -0.01861402	     -0.22755619	     -2.04411274	     -0.02475665	     -0.24177845	     -1.80834248	     -0.04525813	     -0.24177845	     -1.25799173	     -0.04525813	     -0.19911167	     -1.02211140	     -0.03795771	     -0.18488940	     -0.62894083	     -0.02883312	     -0.17066714	     -7.86220068	     -0.21056551	     -1.26559927	      0.00000000	      0.00000000	     14.66637100	      3.88910131	      8.11470736	    -14.78986003	    -19.87660215	      7.18461105	     74.37375078	     89.99559364	      0.00000000	      0.00000000	     -0.41441813	    -16.60338277	     20.54358251	     32.43294384	     89.99559364	      0.00000000	      0.00000000
      0.33333333	     -1.03780034	      1.57926177	    -70.14499967	     -0.57924634	      0.94217334	     -0.70639478	      2.04654932	     -1.86654472	    -12.20644564	     10.67412137	      0.18629856	     17.15005258	    -18.76771553	      0.00000000	      1.43222225	     -6.18098524	     -0.48585109	     11.03864448	      0.19266069	     14.81622390	    -16.79870935	      0.00000000	     -1.10459700	     -0.01620797	     -0.24034324	     -2.05134710	     -0.02155661	     -0.25536469	     -1.81474242	     -0.03940807	     -0.25536469	     -1.26244392	     -0.03940807	     -0.21030033	     -1.02572878	     -0.03305130	     -0.19527888	     -0.63116673	     -0.02510615	     -0.18025743	     -7.89002594	     -0.18334785	     -1.33671698	      0.00000000	      0.00000000	     14.69058689	      3.89854637	      8.16009415	    -14.79076304	    -19.87750237	      7.18456603	     74.37389405	     89.99559364	      0.00000000	      0.00000000	     -0.51218590	    -16.59722840	     20.55600882	     32.46905689	     89.99559364	      0.00000000	      0.00000000
      0.36666667	     -1.20976658	      1.70464200	    -70.42175439	     -0.57965007	      0.94206168	     -0.70636353	      2.32973344	     -1.70086690	    -12.99347556	     10.67654746	      0.18634091	     16.70466073	    -18.81597975	      0.00000000	      1.51554469	     -6.31962283	     -0.95227262	     10.92476210	      0.19067307	     14.78290442	    -16.75120721	      0.00000000	     -1.09664770	     -0.00453146	     -0.21730644	     -2.03658445	     -0.00602684	     -0.23088809	     -1.80168251	     -0.01101778	     -0.23088809	     -1.25335866	     -0.01101778	     -0.19014313	     -1.01834706	     -0.00924055	     -0.17656148	     -0.62662450	     -0.00701923	     -0.16297983	     -7.83324489	     -0.05126074	     -1.20859323	      0.00000000	      0.00000000	     14.72163245	      3.84191436	      8.43908149	    -14.79595237	    -19.88345871	      7.18425597	     74.37461766	     89.99559364	      0.00000000	      0.00000000	     -0.63418432	    -16.65289983	     20.31312039	     32.78161335	     89.99559364	      0.00000000	      0.00000000
